# xmcd
#
# Track frame offsets: 
#        150
#        48785
#        90043
#        146587
#        185614
#        229139
#        269572
#        294590
#
# Disc length: 4316 seconds
#
# Revision: 0
# Processed by: cddbd v1.5.2PL0 Copyright (c) Steve Scherf et al.
# Submitted via: ExactAudioCopy v1.0b1
#
DISCID=6b10da08
DTITLE=Quatuor Talich - Beethoven  Integrale des Quatuors a Cordes CD4
DYEAR=2010
DGENRE=Classical
TTITLE0=Quartet In F Major, Op.59 No.1: 1. Allegro
TTITLE1=Quartet In F Major, Op.59 No.1: 2. Allegretto vivace e sempre 
TTITLE1=scherzando
TTITLE2=Quartet In F Major, Op.59 No.1: 3. Allegro molto e mesto
TTITLE3=Quartet In F Major, Op.59 No.1: 4. Theme russe. Allegro
TTITLE4=Quartet In E-Flat Major, Op.74: 1. Poco adagio - Allegro
TTITLE5=Quartet In E-Flat Major, Op.74: 2. Adagio ma non troppo 
TTITLE6=Quartet In E-Flat Major, Op.74: 3. Presto - Piu presto quasi p
TTITLE6=restissimo 
TTITLE7=Quartet In E-Flat Major, Op.74: 4. Allegretto con variazioni
EXTD=
EXTT0=
EXTT1=
EXTT2=
EXTT3=
EXTT4=
EXTT5=
EXTT6=
EXTT7=
PLAYORDER=
